#N canvas 268 114 630 485 10;
#X floatatom 113 197 12 0 0 0 - - -, f 12;
#X obj 54 187 mtof;
#X obj 106 366 lop~ 1;
#X obj 56 392 *~;
#X obj 106 347 / 100;
#X floatatom 122 319 12 0 0 0 - - -, f 12;
#X obj 54 159 + 51;
#X obj 92 134 r Transpose;
#N canvas 89 70 626 467 speed 1;
#X obj 212 318 t b b;
#X obj 212 294 metro 500;
#X obj 217 259 tgl 15 0 empty empty empty 17 7 0 10 -262144 -1 -1 1
1;
#X obj 295 153 * 1.67772e+07;
#X obj 370 121 r MasterSpeed;
#X obj 93 128 loadbang;
#X obj 123 362 outlet Reset-phase;
#X obj 322 359 outlet;
#X obj 295 225 t f f;
#X obj 295 87 r \$1-Speed;
#X obj 419 340 pow;
#X floatatom 441 234 5 0 0 0 - - -, f 5;
#X obj 445 264 t b f;
#X floatatom 421 399 12 0 0 0 - - -, f 12;
#X obj 422 369 - 1;
#X msg 411 303 1.2;
#X obj 353 419 f;
#X obj 353 441 print;
#X obj 347 389 bng 15 250 50 0 empty empty empty 17 7 0 10 -262144
-1 -1;
#X connect 0 0 6 0;
#X connect 1 0 0 0;
#X connect 2 0 1 0;
#X connect 3 0 8 0;
#X connect 4 0 3 1;
#X connect 5 0 2 0;
#X connect 8 0 1 1;
#X connect 8 0 12 0;
#X connect 8 1 7 0;
#X connect 9 0 3 0;
#X connect 10 0 14 0;
#X connect 11 0 12 0;
#X connect 12 0 15 0;
#X connect 12 1 10 1;
#X connect 14 0 13 0;
#X connect 14 0 16 1;
#X connect 15 0 10 0;
#X connect 16 0 17 0;
#X connect 18 0 16 0;
#X restore 110 233 pd speed;
#X obj 54 105 expr 1 - $f1;
#X obj 362 36 switch~;
#X obj 362 13 inlet;
#X obj 253 282 karpluck~;
#X floatatom 482 237 12 0 0 0 - - -, f 12;
#X obj 304 257 r Global-Kp-Cutoff;
#X obj 262 154 atan;
#X obj 484 258 vsl 15 128 0 1 0 0 empty empty empty 0 -9 0 10 -262144
-1 -1 12629 1;
#X obj 262 179 - 0.575;
#X obj 101 259 f;
#X obj 54 129 * 36;
#X obj 262 230 min 1;
#X obj 301 150 r Global-Kp-Decay;
#X obj 54 19 r \$1-Dist;
#X obj 54 45 - \$2;
#X obj 54 69 / \$3;
#X obj 106 292 r \$1-Phase;
#X obj 57 418 throw~ Planeta;
#X floatatom 160 102 12 0 0 0 - - -, f 12;
#X floatatom 171 256 12 0 0 0 - - -, f 12;
#X floatatom 13 243 12 0 0 0 - - -, f 12;
#X connect 1 0 18 1;
#X connect 1 0 29 0;
#X connect 2 0 3 1;
#X connect 3 0 26 0;
#X connect 4 0 2 0;
#X connect 6 0 1 0;
#X connect 6 0 0 0;
#X connect 7 0 6 1;
#X connect 8 0 18 0;
#X connect 8 1 15 0;
#X connect 8 1 28 0;
#X connect 9 0 19 0;
#X connect 11 0 10 0;
#X connect 12 0 3 0;
#X connect 14 0 12 3;
#X connect 15 0 17 0;
#X connect 17 0 16 0;
#X connect 17 0 13 0;
#X connect 17 0 20 0;
#X connect 18 0 12 0;
#X connect 19 0 6 0;
#X connect 20 0 12 2;
#X connect 21 0 17 1;
#X connect 22 0 23 0;
#X connect 23 0 24 0;
#X connect 24 0 9 0;
#X connect 24 0 27 0;
#X connect 25 0 4 0;
#X connect 25 0 5 0;
