#N canvas 289 87 570 512 10;
#N canvas 118 79 506 465 R-Data 0;
#X obj 17 44 netreceive 3333;
#X floatatom 107 81 5 0 0 0 - - -, f 5;
#X obj 20 372 route Dist-terra Fase Velocidade;
#X floatatom 460 50 5 0 0 0 - - -, f 5;
#X obj 379 86 spigot;
#X obj 426 64 tgl 15 0 empty empty empty 17 7 0 10 -262144 -1 -1 0
1;
#X obj 385 23 netreceive 3000;
#X obj 391 126 print;
#X obj 12 410 s Merc-Dist;
#X obj 95 410 s Merc-Phase;
#X obj 60 302 route Dist-terra Fase Velocidade;
#X obj 51 339 s Venus-Dist;
#X obj 135 340 s Venus-Phase;
#X obj 90 225 route Dist-terra Fase Velocidade;
#X obj 81 262 s Marte-Dist;
#X obj 165 263 s Marte-Phase;
#X obj 197 405 s Merc-Speed;
#X obj 237 336 s Venus-Speed;
#X obj 267 259 s Marte-Speed;
#X obj 15 142 route Mercurio Venus Marte Jupiter;
#X obj 322 184 route Dist-terra Fase Velocidade;
#X obj 313 221 s Jupiter-Dist;
#X obj 408 220 s Jupiter-Phase;
#X obj 508 218 s Jupiter-Speed;
#X connect 0 0 19 0;
#X connect 0 1 1 0;
#X connect 2 0 8 0;
#X connect 2 1 9 0;
#X connect 2 2 16 0;
#X connect 4 0 7 0;
#X connect 5 0 4 1;
#X connect 6 0 4 0;
#X connect 6 1 3 0;
#X connect 10 0 11 0;
#X connect 10 1 12 0;
#X connect 10 2 17 0;
#X connect 13 0 14 0;
#X connect 13 1 15 0;
#X connect 13 2 18 0;
#X connect 19 0 2 0;
#X connect 19 1 10 0;
#X connect 19 2 13 0;
#X connect 19 3 20 0;
#X connect 20 0 21 0;
#X connect 20 1 22 0;
#X connect 20 2 23 0;
#X restore 36 35 pd R-Data;
#N canvas 33 64 450 300 PLANETAS 1;
#N canvas 161 77 783 487 Mercurio 0;
#X floatatom 90 173 12 0 0 0 - - -, f 12;
#X obj 56 7 r Merc-Dist;
#X obj 56 32 - 0.549024;
#X obj 56 57 / 0.900571;
#X obj 56 101 * 12;
#X obj 56 240 osc~;
#X obj 56 147 mtof;
#X obj 56 192 sig~;
#X obj 57 216 lop~ 1;
#X obj 122 282 lop~ 1;
#X obj 228 82 r Merc-Phase;
#X obj 57 304 *~;
#X obj 224 147 / 100;
#X obj 58 330 throw~ Planeta;
#X obj 56 124 + 51;
#X obj 57 269 *~;
#N canvas 33 57 450 300 speed 0;
#X floatatom 328 54 15 0 0 0 - - -, f 15;
#X obj 229 148 vline~;
#X obj 229 69 t b b;
#X msg 229 96 0.25;
#X obj 229 45 metro 500;
#X obj 217 19 tgl 15 0 empty empty empty 17 7 0 10 -262144 -1 -1 1
1;
#X obj 280 13 * 1.67772e+07;
#X obj 308 -19 r MasterSpeed;
#X obj 280 -53 r Merc-Speed;
#X obj 267 221 outlet~ Note;
#X obj 93 -12 loadbang;
#X obj 123 222 outlet Reset-phase;
#X msg 229 125 1 5 \, 0 400 5;
#X obj 234 174 *~;
#X connect 1 0 13 0;
#X connect 1 0 13 1;
#X connect 2 0 3 0;
#X connect 2 1 12 0;
#X connect 3 0 11 0;
#X connect 4 0 2 0;
#X connect 5 0 4 0;
#X connect 6 0 0 0;
#X connect 6 0 4 1;
#X connect 7 0 6 1;
#X connect 8 0 6 0;
#X connect 10 0 5 0;
#X connect 12 0 1 0;
#X connect 13 0 9 0;
#X restore 112 213 pd speed;
#X floatatom 266 114 12 0 0 0 - - -, f 12;
#X obj 56 80 expr 1 - $f1;
#X connect 1 0 2 0;
#X connect 2 0 3 0;
#X connect 3 0 18 0;
#X connect 4 0 14 0;
#X connect 5 0 15 0;
#X connect 6 0 7 0;
#X connect 6 0 0 0;
#X connect 7 0 8 0;
#X connect 8 0 5 0;
#X connect 9 0 11 1;
#X connect 10 0 12 0;
#X connect 10 0 17 0;
#X connect 11 0 13 0;
#X connect 12 0 9 0;
#X connect 14 0 6 0;
#X connect 15 0 11 0;
#X connect 16 0 5 1;
#X connect 16 1 15 1;
#X connect 18 0 4 0;
#X restore 92 81 pd Mercurio;
#N canvas 427 61 550 395 Venus 0;
#X floatatom 91 159 12 0 0 0 - - -, f 12;
#X obj 32 100 * 12;
#X obj 33 220 osc~;
#X obj 32 149 mtof;
#X obj 32 174 sig~;
#X obj 32 196 lop~ 1;
#X obj 99 308 lop~ 1;
#X obj 34 330 *~;
#X obj 224 147 / 100;
#X obj 35 357 throw~ Planeta;
#X obj 32 121 + 51;
#X obj 32 1 r Venus-Dist;
#X obj 228 82 r Venus-Phase;
#X floatatom 284 132 12 0 0 0 - - -, f 12;
#X obj 32 25 - 0.288435;
#X obj 32 50 / 1.42755;
#X obj 34 287 *~;
#N canvas 33 59 527 344 speed 0;
#X floatatom 328 54 15 0 0 0 - - -, f 15;
#X obj 229 69 t b b;
#X msg 229 96 0.25;
#X obj 229 45 metro 500;
#X obj 217 19 tgl 15 0 empty empty empty 17 7 0 10 -262144 -1 -1 1
1;
#X obj 280 13 * 1.67772e+07;
#X obj 308 -19 r MasterSpeed;
#X obj 93 -12 loadbang;
#X obj 123 222 outlet Reset-phase;
#X obj 280 -53 r Venus-Speed;
#X obj 229 148 vline~;
#X obj 267 221 outlet~ Note;
#X msg 229 125 1 5 \, 0 400 5;
#X obj 234 174 *~;
#X connect 1 0 2 0;
#X connect 1 1 12 0;
#X connect 2 0 8 0;
#X connect 3 0 1 0;
#X connect 4 0 3 0;
#X connect 5 0 0 0;
#X connect 5 0 3 1;
#X connect 6 0 5 1;
#X connect 7 0 4 0;
#X connect 9 0 5 0;
#X connect 10 0 13 0;
#X connect 10 0 13 1;
#X connect 12 0 10 0;
#X connect 13 0 11 0;
#X restore 112 213 pd speed;
#X obj 32 74 expr 1 - $f1;
#X connect 1 0 10 0;
#X connect 2 0 16 0;
#X connect 3 0 4 0;
#X connect 4 0 5 0;
#X connect 5 0 2 0;
#X connect 6 0 7 1;
#X connect 7 0 9 0;
#X connect 8 0 6 0;
#X connect 10 0 3 0;
#X connect 10 0 0 0;
#X connect 11 0 14 0;
#X connect 12 0 8 0;
#X connect 12 0 13 0;
#X connect 14 0 15 0;
#X connect 15 0 18 0;
#X connect 16 0 7 0;
#X connect 17 0 2 1;
#X connect 17 1 16 1;
#X connect 18 0 1 0;
#X restore 90 116 pd Venus;
#N canvas 348 81 535 475 Marte 0;
#X floatatom 113 197 12 0 0 0 - - -, f 12;
#X obj 54 69 / 0.900571;
#X obj 55 258 osc~;
#X obj 54 187 mtof;
#X obj 54 212 sig~;
#X obj 54 234 lop~ 1;
#X obj 106 366 lop~ 1;
#X obj 56 392 *~;
#X obj 106 347 / 100;
#X obj 57 418 throw~ Planeta;
#X floatatom 122 319 12 0 0 0 - - -, f 12;
#X obj 54 21 r Marte-Dist;
#X obj 106 292 r Marte-Phase;
#X obj 54 45 - 2.05214;
#X obj 54 159 + 51;
#X obj 101 146 r Transpose;
#X obj 56 286 *~;
#N canvas 33 58 623 467 speed 0;
#X floatatom 328 54 15 0 0 0 - - -, f 15;
#X obj 229 69 t b b;
#X msg 229 96 0.25;
#X obj 229 45 metro 500;
#X obj 217 19 tgl 15 0 empty empty empty 17 7 0 10 -262144 -1 -1 1
1;
#X obj 280 13 * 1.67772e+07;
#X obj 308 -19 r MasterSpeed;
#X obj 93 -12 loadbang;
#X obj 123 222 outlet Reset-phase;
#X obj 280 -53 r Marte-Speed;
#X obj 229 148 vline~;
#X obj 267 221 outlet~ Note;
#X msg 229 125 1 5 \, 0 400 5;
#X obj 234 174 *~;
#X connect 1 0 2 0;
#X connect 1 1 12 0;
#X connect 2 0 8 0;
#X connect 3 0 1 0;
#X connect 4 0 3 0;
#X connect 5 0 0 0;
#X connect 5 0 3 1;
#X connect 6 0 5 1;
#X connect 7 0 4 0;
#X connect 9 0 5 0;
#X connect 10 0 13 0;
#X connect 10 0 13 1;
#X connect 12 0 10 0;
#X connect 13 0 11 0;
#X restore 110 233 pd speed;
#X obj 54 105 expr 1 - $f1;
#X obj 54 129 * 12;
#X connect 1 0 18 0;
#X connect 2 0 16 0;
#X connect 3 0 4 0;
#X connect 4 0 5 0;
#X connect 5 0 2 0;
#X connect 6 0 7 1;
#X connect 7 0 9 0;
#X connect 8 0 6 0;
#X connect 11 0 13 0;
#X connect 12 0 8 0;
#X connect 12 0 10 0;
#X connect 13 0 1 0;
#X connect 14 0 3 0;
#X connect 14 0 0 0;
#X connect 15 0 14 1;
#X connect 16 0 7 0;
#X connect 17 0 2 1;
#X connect 17 1 16 1;
#X connect 18 0 19 0;
#X connect 19 0 14 0;
#X restore 93 145 pd Marte;
#N canvas 338 86 535 475 Jupiter 1;
#X floatatom 113 197 12 0 0 0 - - -, f 12;
#X obj 55 258 osc~;
#X obj 54 187 mtof;
#X obj 54 212 sig~;
#X obj 54 234 lop~ 1;
#X obj 106 396 lop~ 1;
#X obj 56 422 *~;
#X obj 106 377 / 100;
#X obj 57 448 throw~ Planeta;
#X floatatom 122 349 12 0 0 0 - - -, f 12;
#X obj 54 159 + 51;
#X obj 101 133 r Transpose;
#X obj 56 316 *~;
#N canvas 33 62 623 467 speed 0;
#X floatatom 328 54 15 0 0 0 - - -, f 15;
#X obj 229 69 t b b;
#X msg 229 96 0.25;
#X obj 229 45 metro 500;
#X obj 217 19 tgl 15 0 empty empty empty 17 7 0 10 -262144 -1 -1 1
1;
#X obj 280 13 * 1.67772e+07;
#X obj 308 -19 r MasterSpeed;
#X obj 93 -12 loadbang;
#X obj 123 222 outlet Reset-phase;
#X obj 229 148 vline~;
#X obj 267 221 outlet~ Note;
#X msg 229 125 1 5 \, 0 400 5;
#X obj 234 174 *~;
#X obj 280 -53 r Jupiter-Speed;
#X connect 1 0 2 0;
#X connect 1 1 11 0;
#X connect 2 0 8 0;
#X connect 3 0 1 0;
#X connect 4 0 3 0;
#X connect 5 0 0 0;
#X connect 5 0 3 1;
#X connect 6 0 5 1;
#X connect 7 0 4 0;
#X connect 9 0 12 0;
#X connect 9 0 12 1;
#X connect 11 0 9 0;
#X connect 12 0 10 0;
#X connect 13 0 5 0;
#X restore 108 223 pd speed;
#X obj 54 105 expr 1 - $f1;
#X obj 54 21 r Jupiter-Dist;
#X obj 106 322 r Jupiter-Phase;
#X obj 54 45 - 2.05214;
#X obj 54 69 / 6.39851;
#X obj 54 129 * 12;
#X obj 350 130 switch~;
#X obj 351 99 inlet;
#X connect 1 0 12 0;
#X connect 2 0 3 0;
#X connect 2 0 0 0;
#X connect 3 0 4 0;
#X connect 4 0 1 0;
#X connect 5 0 6 1;
#X connect 6 0 8 0;
#X connect 7 0 5 0;
#X connect 10 0 2 0;
#X connect 11 0 10 1;
#X connect 12 0 6 0;
#X connect 13 0 1 1;
#X connect 13 1 12 1;
#X connect 14 0 19 0;
#X connect 15 0 17 0;
#X connect 16 0 7 0;
#X connect 16 0 9 0;
#X connect 17 0 18 0;
#X connect 18 0 14 0;
#X connect 19 0 10 0;
#X connect 21 0 20 0;
#X restore 37 219 pd Jupiter;
#X obj 37 195 tgl 15 0 empty Jupiter-Switch-Set empty 17 7 0 10 -262144
-1 -1 1 1;
#X connect 4 0 3 0;
#X restore 34 64 pd PLANETAS;
#X obj 158 153 catch~ Planeta;
#X obj 158 348 dac~;
#X obj 175 224 lop~ 1;
#X obj 175 199 / 100;
#X obj 159 249 *~;
#X obj 32 189 s Transpose;
#N canvas 472 73 450 300 INIT 0;
#X obj 154 118 loadbang;
#X msg 154 150 \; Transpose-set 55 \; MasterSpeed-set 9 \; MainVol-set
8 \; Jupiter-Switch-Set 1 \;;
#X connect 0 0 1 0;
#X restore 36 7 pd INIT;
#X obj 32 164 nbx 5 14 -1e+37 1e+37 0 0 empty Transpose-set empty 0
-8 0 10 -262144 -1 -1 55 256;
#X obj 175 179 nbx 5 14 -1e+37 1e+37 0 0 empty MainVol-set empty 0
-8 0 10 -262144 -1 -1 31 256;
#X floatatom 294 176 0 0 120 0 - - -;
#X text 335 176 level \, dB;
#X floatatom 338 200 0 0 100 0 - - -;
#X text 379 200 liveness \, 0-100;
#X floatatom 382 226 0 0 120 0 - - -;
#X floatatom 426 250 0 0 120 0 - - -;
#X text 413 226 crossover frequency \, Hz.;
#X text 459 251 HF damping \, percent;
#X obj 194 292 rev2~ 84 81 3000 20;
#X obj 265 39 vsl 15 128 0 127 0 0 empty empty empty 0 -9 0 10 -262144
-1 -1 3100 1;
#X obj 38 259 nbx 5 14 -1e+37 1e+37 0 0 empty MasterSpeed-set empty
0 -8 0 10 -262144 -1 -1 9 256;
#X obj 38 326 s MasterSpeed;
#X obj 38 304 * 1e+07;
#X obj 38 280 max 1;
#X connect 2 0 6 0;
#X connect 4 0 6 1;
#X connect 5 0 4 0;
#X connect 6 0 3 0;
#X connect 6 0 3 1;
#X connect 6 0 19 0;
#X connect 9 0 7 0;
#X connect 10 0 5 0;
#X connect 11 0 19 1;
#X connect 13 0 19 2;
#X connect 15 0 19 3;
#X connect 16 0 19 4;
#X connect 19 0 3 0;
#X connect 19 1 3 1;
#X connect 20 0 10 0;
#X connect 21 0 24 0;
#X connect 23 0 22 0;
#X connect 24 0 23 0;
