#N canvas 407 87 570 512 10;
#N canvas 116 80 506 465 R-Data 0;
#X obj 17 44 netreceive 3333;
#X obj 20 372 route Dist-terra Fase Velocidade;
#X floatatom 460 50 5 0 0 0 - - -, f 5;
#X obj 379 86 spigot;
#X obj 426 64 tgl 15 0 empty empty empty 17 7 0 10 -262144 -1 -1 0
1;
#X obj 385 23 netreceive 3000;
#X obj 391 126 print;
#X obj 12 410 s Merc-Dist;
#X obj 95 410 s Merc-Phase;
#X obj 60 302 route Dist-terra Fase Velocidade;
#X obj 51 339 s Venus-Dist;
#X obj 135 340 s Venus-Phase;
#X obj 90 225 route Dist-terra Fase Velocidade;
#X obj 81 262 s Marte-Dist;
#X obj 165 263 s Marte-Phase;
#X obj 197 405 s Merc-Speed;
#X obj 237 336 s Venus-Speed;
#X obj 267 259 s Marte-Speed;
#X obj 15 142 route Mercurio Venus Marte Jupiter;
#X obj 322 184 route Dist-terra Fase Velocidade;
#X obj 313 221 s Jupiter-Dist;
#X obj 408 220 s Jupiter-Phase;
#X obj 508 218 s Jupiter-Speed;
#X obj 88 97 bng 15 250 50 0 empty empty empty 17 7 0 10 -262144 -1
-1;
#X obj 95 68 sel 1;
#X connect 0 0 18 0;
#X connect 0 1 24 0;
#X connect 1 0 7 0;
#X connect 1 1 8 0;
#X connect 1 2 15 0;
#X connect 3 0 6 0;
#X connect 4 0 3 1;
#X connect 5 0 3 0;
#X connect 5 1 2 0;
#X connect 9 0 10 0;
#X connect 9 1 11 0;
#X connect 9 2 16 0;
#X connect 12 0 13 0;
#X connect 12 1 14 0;
#X connect 12 2 17 0;
#X connect 18 0 1 0;
#X connect 18 1 9 0;
#X connect 18 2 12 0;
#X connect 18 3 19 0;
#X connect 19 0 20 0;
#X connect 19 1 21 0;
#X connect 19 2 22 0;
#X connect 24 0 23 0;
#X restore 36 35 pd R-Data;
#N canvas 33 66 450 300 PLANETAS 1;
#N canvas 145 85 783 487 Mercurio 0;
#X floatatom 90 173 12 0 0 0 - - -, f 12;
#X obj 56 7 r Merc-Dist;
#X obj 56 32 - 0.549024;
#X obj 56 57 / 0.900571;
#X obj 56 147 mtof;
#X obj 122 282 lop~ 1;
#X obj 228 82 r Merc-Phase;
#X obj 94 354 *~;
#X obj 224 147 / 100;
#X obj 95 380 throw~ Planeta;
#X obj 56 124 + 51;
#N canvas 33 58 450 300 speed 0;
#X floatatom 328 54 15 0 0 0 - - -, f 15;
#X obj 229 69 t b b;
#X obj 229 45 metro 500;
#X obj 217 19 tgl 15 0 empty empty empty 17 7 0 10 -262144 -1 -1 1
1;
#X obj 280 13 * 1.67772e+07;
#X obj 308 -19 r MasterSpeed;
#X obj 280 -53 r Merc-Speed;
#X obj 93 -12 loadbang;
#X obj 123 222 outlet Reset-phase;
#X obj 266 222 outlet;
#X obj 312 113 t f f;
#X connect 1 0 8 0;
#X connect 2 0 1 0;
#X connect 3 0 2 0;
#X connect 4 0 0 0;
#X connect 4 0 10 0;
#X connect 5 0 4 1;
#X connect 6 0 4 0;
#X connect 7 0 3 0;
#X connect 10 0 2 1;
#X connect 10 1 9 0;
#X restore 112 213 pd speed;
#X floatatom 266 114 12 0 0 0 - - -, f 12;
#X obj 56 80 expr 1 - $f1;
#X obj 361 44 switch~;
#X obj 362 13 inlet;
#X obj 321 306 karpluck~;
#X obj 379 261 r Global-Kp-Cutoff;
#X obj 330 178 atan;
#X obj 333 277 min 1;
#X obj 330 203 - 0.575;
#X obj 97 249 f;
#X obj 56 101 * 36;
#X connect 1 0 2 0;
#X connect 2 0 3 0;
#X connect 3 0 13 0;
#X connect 4 0 0 0;
#X connect 4 0 21 1;
#X connect 5 0 7 1;
#X connect 6 0 8 0;
#X connect 6 0 12 0;
#X connect 7 0 9 0;
#X connect 8 0 5 0;
#X connect 10 0 4 0;
#X connect 11 0 21 0;
#X connect 11 1 18 0;
#X connect 13 0 22 0;
#X connect 15 0 14 0;
#X connect 16 0 7 0;
#X connect 17 0 16 3;
#X connect 18 0 20 0;
#X connect 19 0 16 1;
#X connect 20 0 19 0;
#X connect 21 0 16 0;
#X connect 22 0 10 0;
#X restore 38 61 pd Mercurio;
#N canvas 411 69 550 395 Venus 0;
#X floatatom 91 159 12 0 0 0 - - -, f 12;
#X obj 32 149 mtof;
#X obj 100 329 lop~ 1;
#X obj 34 330 *~;
#X obj 224 147 / 100;
#X obj 35 357 throw~ Planeta;
#X obj 32 121 + 51;
#X obj 32 1 r Venus-Dist;
#X obj 228 82 r Venus-Phase;
#X floatatom 284 132 12 0 0 0 - - -, f 12;
#X obj 32 25 - 0.288435;
#X obj 32 50 / 1.42755;
#N canvas 33 64 657 436 speed 0;
#X obj 229 69 t b b;
#X obj 229 45 metro 500;
#X obj 217 19 tgl 15 0 empty empty empty 17 7 0 10 -262144 -1 -1 1
1;
#X obj 332 58 * 1.67772e+07;
#X obj 360 26 r MasterSpeed;
#X obj 93 -12 loadbang;
#X obj 123 222 outlet Reset-phase;
#X obj 332 -8 r Venus-Speed;
#X floatatom 371 126 15 0 0 0 - - -, f 15;
#X obj 332 101 t f f f;
#X obj 298 304 outlet speed;
#X connect 0 0 6 0;
#X connect 1 0 0 0;
#X connect 2 0 1 0;
#X connect 3 0 9 0;
#X connect 4 0 3 1;
#X connect 5 0 2 0;
#X connect 7 0 3 0;
#X connect 9 0 1 1;
#X connect 9 1 10 0;
#X connect 9 2 8 0;
#X restore 112 213 pd speed;
#X obj 32 74 expr 1 - $f1;
#X obj 362 36 switch~;
#X obj 362 13 inlet;
#X obj 284 296 karpluck~;
#X obj 342 251 r Global-Kp-Cutoff;
#X obj 293 168 atan;
#X obj 296 267 min 1;
#X obj 293 193 - 0.575;
#X obj 93 245 f;
#X obj 32 100 * 36;
#X connect 1 0 0 0;
#X connect 1 0 21 1;
#X connect 2 0 3 1;
#X connect 3 0 5 0;
#X connect 4 0 2 0;
#X connect 6 0 1 0;
#X connect 7 0 10 0;
#X connect 8 0 4 0;
#X connect 8 0 9 0;
#X connect 10 0 11 0;
#X connect 11 0 13 0;
#X connect 12 0 21 0;
#X connect 12 1 18 0;
#X connect 13 0 22 0;
#X connect 15 0 14 0;
#X connect 16 0 3 0;
#X connect 17 0 16 3;
#X connect 18 0 20 0;
#X connect 19 0 16 1;
#X connect 20 0 19 0;
#X connect 21 0 16 0;
#X connect 22 0 6 0;
#X restore 38 116 pd Venus;
#N canvas 57 90 535 475 Marte 0;
#X floatatom 113 197 12 0 0 0 - - -, f 12;
#X obj 54 69 / 0.900571;
#X obj 54 187 mtof;
#X obj 106 366 lop~ 1;
#X obj 56 392 *~;
#X obj 106 347 / 100;
#X obj 57 418 throw~ Planeta;
#X floatatom 122 319 12 0 0 0 - - -, f 12;
#X obj 54 21 r Marte-Dist;
#X obj 106 292 r Marte-Phase;
#X obj 54 45 - 2.05214;
#X obj 54 159 + 51;
#X obj 101 146 r Transpose;
#N canvas 33 60 626 467 speed 0;
#X obj 212 78 t b b;
#X obj 212 54 metro 500;
#X obj 217 19 tgl 15 0 empty empty empty 17 7 0 10 -262144 -1 -1 1
1;
#X obj 280 13 * 1.67772e+07;
#X obj 308 -19 r MasterSpeed;
#X obj 93 -12 loadbang;
#X obj 123 222 outlet Reset-phase;
#X obj 280 -53 r Marte-Speed;
#X obj 267 221 outlet;
#X obj 295 85 t f f;
#X connect 0 0 6 0;
#X connect 1 0 0 0;
#X connect 2 0 1 0;
#X connect 3 0 9 0;
#X connect 4 0 3 1;
#X connect 5 0 2 0;
#X connect 7 0 3 0;
#X connect 9 0 1 1;
#X connect 9 1 8 0;
#X restore 110 233 pd speed;
#X obj 54 105 expr 1 - $f1;
#X obj 362 36 switch~;
#X obj 362 13 inlet;
#X obj 253 282 karpluck~;
#X floatatom 341 209 12 0 0 0 - - -, f 12;
#X obj 311 237 r Global-Kp-Cutoff;
#X obj 262 154 atan;
#X obj 363 264 vsl 15 128 0 1 0 0 empty empty empty 0 -9 0 10 -262144
-1 -1 12643 1;
#X obj 265 253 min 1;
#X obj 262 179 - 0.575;
#X obj 101 259 f;
#X obj 54 129 * 36;
#X connect 1 0 14 0;
#X connect 2 0 24 1;
#X connect 3 0 4 1;
#X connect 4 0 6 0;
#X connect 5 0 3 0;
#X connect 8 0 10 0;
#X connect 9 0 5 0;
#X connect 9 0 7 0;
#X connect 10 0 1 0;
#X connect 11 0 2 0;
#X connect 11 0 0 0;
#X connect 12 0 11 1;
#X connect 13 0 24 0;
#X connect 13 1 20 0;
#X connect 14 0 25 0;
#X connect 16 0 15 0;
#X connect 17 0 4 0;
#X connect 19 0 17 3;
#X connect 20 0 23 0;
#X connect 22 0 17 1;
#X connect 23 0 21 0;
#X connect 23 0 18 0;
#X connect 23 0 22 0;
#X connect 24 0 17 0;
#X connect 25 0 11 0;
#X restore 37 165 pd Marte;
#N canvas 274 124 535 475 Jupiter 0;
#X floatatom 113 197 12 0 0 0 - - -, f 12;
#X obj 13 278 osc~;
#X obj 54 187 mtof;
#X obj 12 232 sig~;
#X obj 12 254 lop~ 1;
#X obj 106 396 lop~ 1;
#X obj 56 422 *~;
#X obj 106 377 / 100;
#X obj 57 448 throw~ Planeta;
#X floatatom 122 349 12 0 0 0 - - -, f 12;
#X obj 54 159 + 51;
#X obj 101 133 r Transpose;
#X obj 56 316 *~;
#N canvas 42 132 623 467 speed 0;
#X floatatom 319 60 15 0 0 0 - - -, f 15;
#X obj 229 100 t b b;
#X obj 229 75 metro 500;
#X obj 217 19 tgl 15 0 empty empty empty 17 7 0 10 -262144 -1 -1 1
1;
#X obj 280 13 * 1.67772e+07;
#X obj 308 -19 r MasterSpeed;
#X obj 93 -12 loadbang;
#X obj 280 -53 r Jupiter-Speed;
#X obj 280 35 t f f f;
#X obj 93 222 outlet bang;
#X obj 279 263 outlet speed;
#X connect 1 0 9 0;
#X connect 2 0 1 0;
#X connect 3 0 2 0;
#X connect 4 0 8 0;
#X connect 5 0 4 1;
#X connect 6 0 3 0;
#X connect 7 0 4 0;
#X connect 8 0 2 1;
#X connect 8 1 10 0;
#X connect 8 2 0 0;
#X restore 172 216 pd speed;
#X obj 54 105 expr 1 - $f1;
#X obj 54 21 r Jupiter-Dist;
#X obj 106 322 r Jupiter-Phase;
#X obj 350 130 switch~;
#X obj 351 99 inlet;
#X obj 54 45 - 4.43535;
#X obj 54 69 / 1.96316;
#X obj 253 282 karpluck~;
#X obj 140 264 f;
#X floatatom 341 209 12 0 0 0 - - -, f 12;
#X obj 311 237 r Global-Kp-Cutoff;
#X obj 260 91 atan;
#X obj 471 294 vsl 15 128 0 1 0 0 empty empty empty 0 -9 0 10 -262144
-1 -1 12620 1;
#X obj 265 253 min 1;
#X obj 262 179 - 0.575;
#X obj 54 129 * 36;
#X connect 1 0 12 0;
#X connect 2 0 0 0;
#X connect 2 0 22 1;
#X connect 3 0 4 0;
#X connect 4 0 1 0;
#X connect 5 0 6 1;
#X connect 6 0 8 0;
#X connect 7 0 5 0;
#X connect 10 0 2 0;
#X connect 11 0 10 1;
#X connect 13 0 22 0;
#X connect 13 1 25 0;
#X connect 14 0 29 0;
#X connect 15 0 19 0;
#X connect 16 0 7 0;
#X connect 16 0 9 0;
#X connect 18 0 17 0;
#X connect 19 0 20 0;
#X connect 20 0 14 0;
#X connect 21 0 6 0;
#X connect 22 0 21 0;
#X connect 24 0 21 3;
#X connect 25 0 28 0;
#X connect 27 0 21 1;
#X connect 28 0 26 0;
#X connect 28 0 23 0;
#X connect 28 0 27 0;
#X connect 29 0 10 0;
#X restore 37 219 pd Jupiter;
#X obj 37 200 tgl 15 0 empty Jupiter-Switch-Set empty 17 7 0 10 -262144
-1 -1 1 1;
#X obj 38 41 tgl 15 0 empty Mercury-Switch-Set empty 17 7 0 10 -262144
-1 -1 1 1;
#X obj 38 97 tgl 15 0 empty Venus-Switch-Set empty 17 7 0 10 -262144
-1 -1 1 1;
#X obj 37 146 tgl 15 0 empty Mars-Switch-Set empty 17 7 0 10 -262144
-1 -1 1 1;
#X connect 4 0 3 0;
#X connect 5 0 0 0;
#X connect 6 0 1 0;
#X connect 7 0 2 0;
#X restore 34 64 pd PLANETAS;
#X obj 158 153 catch~ Planeta;
#X obj 158 348 dac~;
#X obj 175 224 lop~ 1;
#X obj 175 199 / 100;
#X obj 159 249 *~;
#N canvas 299 253 450 300 INIT 0;
#X obj 153 128 loadbang;
#X msg 153 150 \; Transpose-set 47 \; MasterSpeed-set 6 \; MainVol-set
8 \; Global-Kp-Cutoff-Set 116 \; Jupiter-Switch-Set 1 \; Mercury-Switch-Set
1 \;;
#X connect 0 0 1 0;
#X restore 36 7 pd INIT;
#X obj 175 179 nbx 5 14 -1e+37 1e+37 0 0 empty MainVol-set empty 0
-8 0 10 -262144 -1 -1 11.4189 256;
#X floatatom 294 176 0 0 120 0 - - -;
#X text 335 176 level \, dB;
#X floatatom 338 200 0 0 100 0 - - -;
#X text 379 200 liveness \, 0-100;
#X floatatom 382 226 0 0 120 0 - - -;
#X floatatom 426 250 0 0 120 0 - - -;
#X text 413 226 crossover frequency \, Hz.;
#X text 459 251 HF damping \, percent;
#X obj 194 292 rev2~ 84 81 3000 20;
#X obj 265 39 vsl 15 128 0 20 0 0 empty empty empty 0 -9 0 10 -262144
-1 -1 7251 1;
#X obj 122 428 env~;
#X obj 252 345 vsl 15 128 0 100 0 0 empty empty empty 0 -9 0 10 -262144
-1 -1 4365 1;
#N canvas 470 210 450 300 CONTROLS 0;
#X obj 15 53 s Transpose;
#X obj 15 28 nbx 5 14 -1e+37 1e+37 0 0 empty Transpose-set empty 0
-8 0 10 -262144 -1 -1 47 256;
#X obj 21 123 nbx 5 14 -1e+37 1e+37 0 0 empty MasterSpeed-set empty
0 -8 0 10 -262144 -1 -1 6 256;
#X obj 21 190 s MasterSpeed;
#X obj 21 168 * 1e+07;
#X obj 21 144 max 1;
#X obj 272 171 mtof;
#X floatatom 272 194 12 0 0 0 - - -, f 12;
#X obj 272 31 vsl 15 128 0 127 0 0 empty Global-Kp-Cutoff-Set empty
0 -9 0 10 -262144 -1 -1 11600 1;
#X obj 272 213 s Global-Kp-Cutoff;
#X floatatom 298 149 5 0 0 0 - - -, f 5;
#X connect 1 0 0 0;
#X connect 2 0 5 0;
#X connect 4 0 3 0;
#X connect 5 0 4 0;
#X connect 6 0 7 0;
#X connect 7 0 9 0;
#X connect 8 0 6 0;
#X connect 8 0 10 0;
#X restore 109 9 pd CONTROLS;
#X connect 2 0 6 0;
#X connect 4 0 6 1;
#X connect 5 0 4 0;
#X connect 6 0 3 0;
#X connect 6 0 3 1;
#X connect 6 0 17 0;
#X connect 6 0 19 0;
#X connect 8 0 5 0;
#X connect 9 0 17 1;
#X connect 11 0 17 2;
#X connect 13 0 17 3;
#X connect 14 0 17 4;
#X connect 17 0 3 0;
#X connect 17 1 3 1;
#X connect 18 0 8 0;
#X connect 19 0 20 0;
