#N canvas 352 87 570 512 10;
#N canvas 73 55 632 544 R-Data 0;
#X obj 17 44 netreceive 3333;
#X obj 15 482 route Dist-terra Fase Velocidade;
#X floatatom 460 50 5 0 0 0 - - -, f 5;
#X obj 379 86 spigot;
#X obj 426 64 tgl 15 0 empty empty empty 17 7 0 10 -262144 -1 -1 0
1;
#X obj 385 23 netreceive 3000;
#X obj 391 126 print;
#X obj 7 520 s Merc-Dist;
#X obj 90 520 s Merc-Phase;
#X obj 65 412 route Dist-terra Fase Velocidade;
#X obj 56 449 s Venus-Dist;
#X obj 140 450 s Venus-Phase;
#X obj 115 345 route Dist-terra Fase Velocidade;
#X obj 106 382 s Marte-Dist;
#X obj 190 383 s Marte-Phase;
#X obj 192 515 s Merc-Speed;
#X obj 242 446 s Venus-Speed;
#X obj 292 379 s Marte-Speed;
#X obj 165 264 route Dist-terra Fase Velocidade;
#X obj 165 321 s Jupiter-Dist;
#X obj 228 302 s Jupiter-Phase;
#X obj 291 283 s Jupiter-Speed;
#X obj 88 97 bng 15 250 50 0 empty empty empty 17 7 0 10 -262144 -1
-1;
#X obj 95 68 sel 1;
#X obj 252 197 plRoute Uranus;
#X obj 205 221 plRoute Saturn;
#X obj 300 173 plRoute Neptune;
#X obj 15 142 route Mercurio Venus Marte Jupiter Saturn Uranus Neptune
;
#X connect 0 0 27 0;
#X connect 0 1 23 0;
#X connect 1 0 7 0;
#X connect 1 1 8 0;
#X connect 1 2 15 0;
#X connect 3 0 6 0;
#X connect 4 0 3 1;
#X connect 5 0 3 0;
#X connect 5 1 2 0;
#X connect 9 0 10 0;
#X connect 9 1 11 0;
#X connect 9 2 16 0;
#X connect 12 0 13 0;
#X connect 12 1 14 0;
#X connect 12 2 17 0;
#X connect 18 0 19 0;
#X connect 18 1 20 0;
#X connect 18 2 21 0;
#X connect 23 0 22 0;
#X connect 27 0 1 0;
#X connect 27 1 9 0;
#X connect 27 2 12 0;
#X connect 27 3 18 0;
#X connect 27 4 25 0;
#X connect 27 5 24 0;
#X connect 27 6 26 0;
#X restore 36 35 pd R-Data;
#N canvas 33 71 450 300 PLANETAS 1;
#N canvas 141 87 783 487 Mercurio 0;
#X floatatom 90 173 12 0 0 0 - - -, f 12;
#X obj 56 7 r Merc-Dist;
#X obj 56 32 - 0.549024;
#X obj 56 57 / 0.900571;
#X obj 56 147 mtof;
#X obj 122 282 lop~ 1;
#X obj 228 82 r Merc-Phase;
#X obj 94 354 *~;
#X obj 224 147 / 100;
#X obj 95 380 throw~ Planeta;
#X obj 56 124 + 51;
#N canvas 33 60 450 300 speed 0;
#X floatatom 328 54 15 0 0 0 - - -, f 15;
#X obj 229 69 t b b;
#X obj 229 45 metro 500;
#X obj 217 19 tgl 15 0 empty empty empty 17 7 0 10 -262144 -1 -1 1
1;
#X obj 280 13 * 1.67772e+07;
#X obj 308 -19 r MasterSpeed;
#X obj 280 -53 r Merc-Speed;
#X obj 93 -12 loadbang;
#X obj 123 222 outlet Reset-phase;
#X obj 266 222 outlet;
#X obj 312 113 t f f;
#X connect 1 0 8 0;
#X connect 2 0 1 0;
#X connect 3 0 2 0;
#X connect 4 0 0 0;
#X connect 4 0 10 0;
#X connect 5 0 4 1;
#X connect 6 0 4 0;
#X connect 7 0 3 0;
#X connect 10 0 2 1;
#X connect 10 1 9 0;
#X restore 112 213 pd speed;
#X floatatom 266 114 12 0 0 0 - - -, f 12;
#X obj 56 80 expr 1 - $f1;
#X obj 361 44 switch~;
#X obj 362 13 inlet;
#X obj 321 306 karpluck~;
#X obj 379 261 r Global-Kp-Cutoff;
#X obj 330 178 atan;
#X obj 333 277 min 1;
#X obj 330 203 - 0.575;
#X obj 97 249 f;
#X obj 56 101 * 36;
#X connect 1 0 2 0;
#X connect 2 0 3 0;
#X connect 3 0 13 0;
#X connect 4 0 0 0;
#X connect 4 0 21 1;
#X connect 5 0 7 1;
#X connect 6 0 8 0;
#X connect 6 0 12 0;
#X connect 7 0 9 0;
#X connect 8 0 5 0;
#X connect 10 0 4 0;
#X connect 11 0 21 0;
#X connect 11 1 18 0;
#X connect 13 0 22 0;
#X connect 15 0 14 0;
#X connect 16 0 7 0;
#X connect 17 0 16 3;
#X connect 18 0 20 0;
#X connect 19 0 16 1;
#X connect 20 0 19 0;
#X connect 21 0 16 0;
#X connect 22 0 10 0;
#X restore 38 61 pd Mercurio;
#N canvas 409 70 550 395 Venus 0;
#X floatatom 91 159 12 0 0 0 - - -, f 12;
#X obj 32 149 mtof;
#X obj 100 329 lop~ 1;
#X obj 34 330 *~;
#X obj 224 147 / 100;
#X obj 35 357 throw~ Planeta;
#X obj 32 121 + 51;
#X obj 32 1 r Venus-Dist;
#X obj 228 82 r Venus-Phase;
#X floatatom 284 132 12 0 0 0 - - -, f 12;
#X obj 32 25 - 0.288435;
#X obj 32 50 / 1.42755;
#N canvas 33 65 657 436 speed 0;
#X obj 229 69 t b b;
#X obj 229 45 metro 500;
#X obj 217 19 tgl 15 0 empty empty empty 17 7 0 10 -262144 -1 -1 1
1;
#X obj 332 58 * 1.67772e+07;
#X obj 360 26 r MasterSpeed;
#X obj 93 -12 loadbang;
#X obj 123 222 outlet Reset-phase;
#X obj 332 -8 r Venus-Speed;
#X floatatom 371 126 15 0 0 0 - - -, f 15;
#X obj 332 101 t f f f;
#X obj 298 304 outlet speed;
#X connect 0 0 6 0;
#X connect 1 0 0 0;
#X connect 2 0 1 0;
#X connect 3 0 9 0;
#X connect 4 0 3 1;
#X connect 5 0 2 0;
#X connect 7 0 3 0;
#X connect 9 0 1 1;
#X connect 9 1 10 0;
#X connect 9 2 8 0;
#X restore 112 213 pd speed;
#X obj 32 74 expr 1 - $f1;
#X obj 362 36 switch~;
#X obj 362 13 inlet;
#X obj 284 296 karpluck~;
#X obj 342 251 r Global-Kp-Cutoff;
#X obj 293 168 atan;
#X obj 296 267 min 1;
#X obj 293 193 - 0.575;
#X obj 93 245 f;
#X obj 32 100 * 36;
#X connect 1 0 0 0;
#X connect 1 0 21 1;
#X connect 2 0 3 1;
#X connect 3 0 5 0;
#X connect 4 0 2 0;
#X connect 6 0 1 0;
#X connect 7 0 10 0;
#X connect 8 0 4 0;
#X connect 8 0 9 0;
#X connect 10 0 11 0;
#X connect 11 0 13 0;
#X connect 12 0 21 0;
#X connect 12 1 18 0;
#X connect 13 0 22 0;
#X connect 15 0 14 0;
#X connect 16 0 3 0;
#X connect 17 0 16 3;
#X connect 18 0 20 0;
#X connect 19 0 16 1;
#X connect 20 0 19 0;
#X connect 21 0 16 0;
#X connect 22 0 6 0;
#X restore 38 116 pd Venus;
#N canvas 270 124 535 475 Jupiter 0;
#X floatatom 113 197 12 0 0 0 - - -, f 12;
#X obj 13 278 osc~;
#X obj 54 187 mtof;
#X obj 12 232 sig~;
#X obj 12 254 lop~ 1;
#X obj 106 396 lop~ 1;
#X obj 56 422 *~;
#X obj 106 377 / 100;
#X obj 57 448 throw~ Planeta;
#X floatatom 122 349 12 0 0 0 - - -, f 12;
#X obj 54 159 + 51;
#X obj 101 133 r Transpose;
#X obj 56 316 *~;
#N canvas 42 132 623 467 speed 0;
#X floatatom 319 60 15 0 0 0 - - -, f 15;
#X obj 229 100 t b b;
#X obj 229 75 metro 500;
#X obj 217 19 tgl 15 0 empty empty empty 17 7 0 10 -262144 -1 -1 1
1;
#X obj 280 13 * 1.67772e+07;
#X obj 308 -19 r MasterSpeed;
#X obj 93 -12 loadbang;
#X obj 280 -53 r Jupiter-Speed;
#X obj 280 35 t f f f;
#X obj 93 222 outlet bang;
#X obj 279 263 outlet speed;
#X connect 1 0 9 0;
#X connect 2 0 1 0;
#X connect 3 0 2 0;
#X connect 4 0 8 0;
#X connect 5 0 4 1;
#X connect 6 0 3 0;
#X connect 7 0 4 0;
#X connect 8 0 2 1;
#X connect 8 1 10 0;
#X connect 8 2 0 0;
#X restore 172 216 pd speed;
#X obj 54 105 expr 1 - $f1;
#X obj 54 21 r Jupiter-Dist;
#X obj 106 322 r Jupiter-Phase;
#X obj 350 130 switch~;
#X obj 351 99 inlet;
#X obj 54 45 - 4.43535;
#X obj 54 69 / 1.96316;
#X obj 253 282 karpluck~;
#X obj 140 264 f;
#X floatatom 341 209 12 0 0 0 - - -, f 12;
#X obj 311 237 r Global-Kp-Cutoff;
#X obj 260 91 atan;
#X obj 471 294 vsl 15 128 0 1 0 0 empty empty empty 0 -9 0 10 -262144
-1 -1 12637 1;
#X obj 265 253 min 1;
#X obj 262 179 - 0.575;
#X obj 54 129 * 36;
#X obj 343 300 loadbang;
#X msg 343 322 0.02;
#X connect 1 0 12 0;
#X connect 2 0 0 0;
#X connect 2 0 22 1;
#X connect 3 0 4 0;
#X connect 4 0 1 0;
#X connect 5 0 6 1;
#X connect 6 0 8 0;
#X connect 7 0 5 0;
#X connect 10 0 2 0;
#X connect 11 0 10 1;
#X connect 13 0 22 0;
#X connect 13 1 25 0;
#X connect 14 0 29 0;
#X connect 15 0 19 0;
#X connect 16 0 7 0;
#X connect 16 0 9 0;
#X connect 18 0 17 0;
#X connect 19 0 20 0;
#X connect 20 0 14 0;
#X connect 21 0 6 0;
#X connect 22 0 21 0;
#X connect 24 0 21 3;
#X connect 25 0 28 0;
#X connect 27 0 21 1;
#X connect 28 0 26 0;
#X connect 28 0 23 0;
#X connect 28 0 27 0;
#X connect 29 0 10 0;
#X connect 30 0 31 0;
#X connect 31 0 21 2;
#X restore 37 219 pd Jupiter;
#X obj 37 200 tgl 15 0 empty Jupiter-Switch-Set empty 17 7 0 10 -262144
-1 -1 1 1;
#X obj 38 41 tgl 15 0 empty Mercury-Switch-Set empty 17 7 0 10 -262144
-1 -1 1 1;
#X obj 38 97 tgl 15 0 empty Venus-Switch-Set empty 17 7 0 10 -262144
-1 -1 1 1;
#X obj 237 33 tgl 15 0 empty Saturn-Switch-Set empty 17 7 0 10 -262144
-1 -1 1 1;
#N canvas 266 124 535 475 Saturn 0;
#X floatatom 113 197 12 0 0 0 - - -, f 12;
#X obj 13 278 osc~;
#X obj 54 187 mtof;
#X obj 12 232 sig~;
#X obj 12 254 lop~ 1;
#X obj 106 396 lop~ 1;
#X obj 56 422 *~;
#X obj 106 377 / 100;
#X obj 57 448 throw~ Planeta;
#X floatatom 122 349 12 0 0 0 - - -, f 12;
#X obj 54 159 + 51;
#X obj 101 133 r Transpose;
#X obj 56 316 *~;
#N canvas 38 132 623 467 speed 0;
#X floatatom 319 60 15 0 0 0 - - -, f 15;
#X obj 229 100 t b b;
#X obj 229 75 metro 500;
#X obj 217 19 tgl 15 0 empty empty empty 17 7 0 10 -262144 -1 -1 1
1;
#X obj 280 13 * 1.67772e+07;
#X obj 308 -19 r MasterSpeed;
#X obj 93 -12 loadbang;
#X obj 280 35 t f f f;
#X obj 93 222 outlet bang;
#X obj 279 263 outlet speed;
#X obj 280 -53 r Saturn-Speed;
#X connect 1 0 8 0;
#X connect 2 0 1 0;
#X connect 3 0 2 0;
#X connect 4 0 7 0;
#X connect 5 0 4 1;
#X connect 6 0 3 0;
#X connect 7 0 2 1;
#X connect 7 1 9 0;
#X connect 7 2 0 0;
#X connect 10 0 4 0;
#X restore 172 216 pd speed;
#X obj 54 105 expr 1 - $f1;
#X obj 350 130 switch~;
#X obj 351 99 inlet;
#X obj 253 282 karpluck~;
#X obj 140 264 f;
#X floatatom 341 209 12 0 0 0 - - -, f 12;
#X obj 311 237 r Global-Kp-Cutoff;
#X obj 260 91 atan;
#X obj 471 294 vsl 15 128 0 1 0 0 empty empty empty 0 -9 0 10 -262144
-1 -1 12620 1;
#X obj 265 253 min 1;
#X obj 262 179 - 0.575;
#X obj 54 129 * 36;
#X obj 54 21 r Saturn-Dist;
#X obj 106 322 r Saturn-Phase;
#X floatatom 176 57 15 0 0 0 - - -, f 15;
#X obj 54 45 - 8.96671;
#X obj 54 69 / 2.06412;
#X floatatom 164 90 15 0 0 0 - - -, f 15;
#X connect 1 0 12 0;
#X connect 2 0 0 0;
#X connect 2 0 18 1;
#X connect 3 0 4 0;
#X connect 4 0 1 0;
#X connect 5 0 6 1;
#X connect 6 0 8 0;
#X connect 7 0 5 0;
#X connect 10 0 2 0;
#X connect 11 0 10 1;
#X connect 13 0 18 0;
#X connect 13 1 21 0;
#X connect 14 0 25 0;
#X connect 16 0 15 0;
#X connect 17 0 6 0;
#X connect 18 0 17 0;
#X connect 20 0 17 3;
#X connect 21 0 24 0;
#X connect 23 0 17 1;
#X connect 24 0 22 0;
#X connect 24 0 19 0;
#X connect 24 0 23 0;
#X connect 25 0 10 0;
#X connect 26 0 28 0;
#X connect 26 0 29 0;
#X connect 27 0 7 0;
#X connect 27 0 9 0;
#X connect 29 0 30 0;
#X connect 30 0 14 0;
#X connect 30 0 31 0;
#X restore 237 52 pd Saturn;
#X obj 36 145 tgl 15 0 empty Mars-Switch-Set empty 17 7 0 10 -262144
-1 -1 1 1;
#X obj 236 82 tgl 15 0 empty Uanus-Switch-Set empty 17 7 0 10 -262144
-1 -1 1 1;
#X obj 236 158 Planet Neptune 28.9455 2.0033;
#X obj 236 135 tgl 15 0 empty Neptune-Switch-Set empty 17 7 0 10 -262144
-1 -1 1 1;
#X obj 236 104 Planet Uranus 18.9511 2.01683;
#X obj 35 166 Planet Marte 0.534778 2.05214;
#X connect 3 0 2 0;
#X connect 4 0 0 0;
#X connect 5 0 1 0;
#X connect 6 0 7 0;
#X connect 8 0 13 0;
#X connect 9 0 12 0;
#X connect 11 0 10 0;
#X restore 34 64 pd PLANETAS;
#X obj 158 153 catch~ Planeta;
#X obj 168 358 dac~;
#X obj 175 224 lop~ 1;
#X obj 175 199 / 100;
#X obj 159 249 *~;
#N canvas 291 257 450 300 INIT 0;
#X obj 153 128 loadbang;
#X msg 153 150 \; Transpose-set 47 \; MasterSpeed-set 149 \; MainVol-set
8 \; Global-Kp-Cutoff-Set 116 \; Jupiter-Switch-Set 1 \; Mercury-Switch-Set
1 \; Venus-Switch-Set 1 \; Mars-Switch-Set 1 \;;
#X connect 0 0 1 0;
#X restore 36 7 pd INIT;
#X obj 175 179 nbx 5 14 -1e+37 1e+37 0 0 empty empty empty 0 -8 0 10
-262144 -1 -1 7.2126 256;
#X floatatom 294 176 0 0 120 0 - - -;
#X text 335 176 level \, dB;
#X floatatom 338 200 0 0 100 0 - - -;
#X text 379 200 liveness \, 0-100;
#X floatatom 382 226 0 0 120 0 - - -;
#X floatatom 426 250 0 0 120 0 - - -;
#X text 433 226 crossover frequency \, Hz.;
#X text 459 251 HF damping \, percent;
#X obj 265 39 vsl 15 128 0 20 0 0 empty MainVol-set empty 0 -9 0 10
-262144 -1 -1 4580 1;
#X obj 122 428 env~;
#X obj 240 366 vsl 15 128 0 100 0 0 empty empty empty 0 -9 0 10 -262144
-1 -1 8745 1;
#N canvas 454 218 450 300 CONTROLS 0;
#X obj 15 53 s Transpose;
#X obj 15 28 nbx 5 14 -1e+37 1e+37 0 0 empty Transpose-set empty 0
-8 0 10 -262144 -1 -1 43 256;
#X obj 21 123 nbx 5 14 -1e+37 1e+37 0 0 empty MasterSpeed-set empty
0 -8 0 10 -262144 -1 -1 17 256;
#X obj 21 190 s MasterSpeed;
#X obj 21 168 * 1e+07;
#X obj 21 144 max 1;
#X obj 272 171 mtof;
#X floatatom 272 194 12 0 0 0 - - -, f 12;
#X obj 272 31 vsl 15 128 0 127 0 0 empty Global-Kp-Cutoff-Set empty
0 -9 0 10 -262144 -1 -1 11600 1;
#X obj 272 213 s Global-Kp-Cutoff;
#X floatatom 298 149 5 0 0 0 - - -, f 5;
#X obj 139 193 s Global-Kp-Decay;
#X floatatom 139 169 12 0 0 0 - - -, f 12;
#X connect 1 0 0 0;
#X connect 2 0 5 0;
#X connect 4 0 3 0;
#X connect 5 0 4 0;
#X connect 6 0 7 0;
#X connect 7 0 9 0;
#X connect 8 0 6 0;
#X connect 8 0 10 0;
#X connect 12 0 11 0;
#X restore 109 9 pd CONTROLS;
#X obj 111 457 / 100;
#X obj 260 328 cyclone/atan~;
#X obj 162 323 cyclone/atan~;
#X obj 397 118 mtof;
#X obj 374 86 hsl 128 15 0 127 0 0 empty empty empty -2 -8 0 10 -262144
-1 -1 10400 1;
#X obj 234 280 rev2~ 84 98 3000 20;
#X obj 453 399 pow;
#X floatatom 475 293 5 0 0 0 - - -, f 5;
#X obj 479 323 t b f;
#X floatatom 358 417 5 0 0 0 - - -, f 5;
#X floatatom 455 458 12 0 0 0 - - -, f 12;
#X obj 456 428 - 1;
#X msg 445 362 1.1;
#X connect 2 0 6 0;
#X connect 4 0 6 1;
#X connect 5 0 4 0;
#X connect 6 0 22 0;
#X connect 6 0 23 0;
#X connect 6 0 26 0;
#X connect 8 0 5 0;
#X connect 9 0 26 1;
#X connect 11 0 26 2;
#X connect 13 0 26 3;
#X connect 14 0 26 4;
#X connect 17 0 8 0;
#X connect 18 0 19 0;
#X connect 18 0 21 0;
#X connect 22 0 3 1;
#X connect 23 0 3 0;
#X connect 23 0 18 0;
#X connect 24 0 13 0;
#X connect 25 0 24 0;
#X connect 26 0 23 0;
#X connect 26 1 22 0;
#X connect 27 0 32 0;
#X connect 28 0 29 0;
#X connect 29 0 33 0;
#X connect 29 1 27 1;
#X connect 32 0 31 0;
#X connect 33 0 27 0;
