#N canvas 421 54 570 512 10;
#N canvas 128 74 506 465 R-Data 1;
#X obj 17 44 netreceive 3333;
#X floatatom 107 81 5 0 0 0 - - -, f 5;
#X obj 20 372 route Dist-terra Fase Velocidade;
#X floatatom 394 88 5 0 0 0 - - -, f 5;
#X obj 313 124 spigot;
#X obj 360 102 tgl 15 0 empty empty empty 17 7 0 10 -262144 -1 -1 0
1;
#X obj 319 61 netreceive 3000;
#X obj 325 164 print;
#X obj 20 168 route Mercurio Venus Marte;
#X obj 12 410 s Merc-Dist;
#X obj 95 410 s Merc-Phase;
#X obj 60 302 route Dist-terra Fase Velocidade;
#X obj 51 339 s Venus-Dist;
#X obj 135 340 s Venus-Phase;
#X obj 237 336 s Venus-speed;
#X obj 90 225 route Dist-terra Fase Velocidade;
#X obj 81 262 s Marte-Dist;
#X obj 165 263 s Marte-Phase;
#X obj 267 259 s Marte-speed;
#X obj 197 405 s Merc-Speed;
#X connect 0 0 8 0;
#X connect 0 1 1 0;
#X connect 2 0 9 0;
#X connect 2 1 10 0;
#X connect 2 2 19 0;
#X connect 4 0 7 0;
#X connect 5 0 4 1;
#X connect 6 0 4 0;
#X connect 6 1 3 0;
#X connect 8 0 2 0;
#X connect 8 1 11 0;
#X connect 8 2 15 0;
#X connect 11 0 12 0;
#X connect 11 1 13 0;
#X connect 11 2 14 0;
#X connect 15 0 16 0;
#X connect 15 1 17 0;
#X connect 15 2 18 0;
#X restore 36 35 pd R-Data;
#N canvas 33 55 450 300 PLANETAS 1;
#N canvas 408 181 516 362 Mercurio 0;
#X floatatom 109 177 12 0 0 0 - - -, f 12;
#X obj 47 1 r Merc-Dist;
#X obj 32 35 - 0.549024;
#X obj 57 68 / 0.900571;
#X obj 49 109 * 12;
#X obj 57 238 osc~;
#X obj 50 167 mtof;
#X obj 56 192 sig~;
#X obj 56 214 lop~ 1;
#X obj 123 240 lop~ 1;
#X floatatom 101 105 12 0 0 0 - - -, f 12;
#X obj 228 82 r Merc-Phase;
#X obj 58 262 *~;
#X obj 224 147 / 100;
#X obj 59 288 throw~ Planeta;
#X obj 49 139 + 51;
#X connect 1 0 2 0;
#X connect 2 0 3 0;
#X connect 3 0 4 0;
#X connect 3 0 10 0;
#X connect 4 0 15 0;
#X connect 5 0 12 0;
#X connect 6 0 7 0;
#X connect 7 0 8 0;
#X connect 8 0 5 0;
#X connect 9 0 12 1;
#X connect 11 0 13 0;
#X connect 12 0 14 0;
#X connect 13 0 9 0;
#X connect 15 0 6 0;
#X connect 15 0 0 0;
#X restore 92 81 pd Mercurio;
#N canvas 523 247 450 300 Venus 1;
#X floatatom 109 177 12 0 0 0 - - -, f 12;
#X obj 32 35 - 0.549024;
#X obj 57 68 / 0.900571;
#X obj 49 109 * 12;
#X obj 57 238 osc~;
#X obj 50 167 mtof;
#X obj 56 192 sig~;
#X obj 56 214 lop~ 1;
#X obj 123 240 lop~ 1;
#X floatatom 101 105 12 0 0 0 - - -, f 12;
#X obj 58 262 *~;
#X obj 224 147 / 100;
#X obj 59 288 throw~ Planeta;
#X obj 49 139 + 51;
#X obj 47 1 r Venus-Dist;
#X obj 228 82 r Venus-Phase;
#X floatatom 284 132 12 0 0 0 - - -, f 12;
#X connect 1 0 2 0;
#X connect 2 0 3 0;
#X connect 2 0 9 0;
#X connect 3 0 13 0;
#X connect 4 0 10 0;
#X connect 5 0 6 0;
#X connect 6 0 7 0;
#X connect 7 0 4 0;
#X connect 8 0 10 1;
#X connect 10 0 12 0;
#X connect 11 0 8 0;
#X connect 13 0 5 0;
#X connect 13 0 0 0;
#X connect 14 0 1 0;
#X connect 15 0 11 0;
#X connect 15 0 16 0;
#X restore 90 116 pd Venus;
#N canvas 388 145 526 400 Marte 1;
#X floatatom 109 177 12 0 0 0 - - -, f 12;
#X obj 32 35 - 0.549024;
#X obj 57 68 / 0.900571;
#X obj 49 109 * 12;
#X obj 57 238 osc~;
#X obj 50 167 mtof;
#X obj 56 192 sig~;
#X obj 56 214 lop~ 1;
#X obj 123 240 lop~ 1;
#X floatatom 101 105 12 0 0 0 - - -, f 12;
#X obj 58 262 *~;
#X obj 224 147 / 100;
#X obj 59 288 throw~ Planeta;
#X floatatom 284 132 12 0 0 0 - - -, f 12;
#X obj 47 1 r Marte-Dist;
#X obj 228 82 r Marte-Phase;
#X obj 49 139 + 39;
#X connect 1 0 2 0;
#X connect 2 0 3 0;
#X connect 2 0 9 0;
#X connect 3 0 16 0;
#X connect 4 0 10 0;
#X connect 5 0 6 0;
#X connect 6 0 7 0;
#X connect 7 0 4 0;
#X connect 8 0 10 1;
#X connect 10 0 12 0;
#X connect 11 0 8 0;
#X connect 14 0 1 0;
#X connect 15 0 11 0;
#X connect 15 0 13 0;
#X connect 16 0 5 0;
#X connect 16 0 0 0;
#X restore 93 145 pd Marte;
#X restore 34 64 pd PLANETAS;
#X obj 128 174 catch~ Planeta;
#X obj 157 260 dac~;
#X obj 232 236 lop~ 1;
#X floatatom 260 149 5 0 0 0 - - -, f 5;
#X obj 260 168 / 100;
#X obj 159 219 *~;
#X connect 2 0 7 0;
#X connect 4 0 7 1;
#X connect 5 0 6 0;
#X connect 6 0 4 0;
#X connect 7 0 3 0;
#X connect 7 0 3 1;
